<svg width="397" height="58" viewBox="0 0 397 58" fill="none" xmlns="http://www.w3.org/2000/svg">
<path d="M14.88 46.672C12.32 46.672 10.016 46.192 7.968 45.232C5.92 44.24 4.304 42.864 3.12 41.104C1.968 39.312 1.392 37.216 1.392 34.816C1.392 33.024 1.632 31.392 2.112 29.92C2.592 28.448 3.28 27.136 4.176 25.984C5.104 24.832 6.192 23.872 7.44 23.104C8.72 22.304 10.144 21.696 11.712 21.28C13.28 20.864 14.96 20.656 16.752 20.656C18.576 20.656 20.176 20.864 21.552 21.28C22.928 21.696 24.144 22.304 25.2 23.104C26.288 23.904 27.264 24.896 28.128 26.08L26.976 27.856L29.856 11.728H38.688L32.592 46H23.808L24.912 40.528L25.296 42.064C24.656 42.992 23.808 43.808 22.752 44.512C21.696 45.216 20.496 45.744 19.152 46.096C17.808 46.48 16.384 46.672 14.88 46.672ZM17.52 40.48C18.512 40.48 19.44 40.368 20.304 40.144C21.2 39.92 21.984 39.6 22.656 39.184C23.36 38.736 23.968 38.208 24.48 37.6C24.992 36.96 25.376 36.256 25.632 35.488C25.888 34.72 26.016 33.904 26.016 33.04C26.016 31.76 25.728 30.656 25.152 29.728C24.576 28.8 23.76 28.096 22.704 27.616C21.68 27.104 20.432 26.848 18.96 26.848C17.936 26.848 16.976 26.96 16.08 27.184C15.216 27.408 14.432 27.744 13.728 28.192C13.024 28.64 12.416 29.184 11.904 29.824C11.424 30.432 11.04 31.12 10.752 31.888C10.496 32.656 10.368 33.472 10.368 34.336C10.368 35.584 10.656 36.672 11.232 37.6C11.808 38.528 12.624 39.248 13.68 39.76C14.768 40.24 16.048 40.48 17.52 40.48ZM53.9719 46.672C50.8039 46.672 48.0679 46.176 45.7639 45.184C43.4599 44.192 41.6679 42.816 40.3879 41.056C39.1399 39.296 38.5159 37.216 38.5159 34.816C38.5159 33.056 38.8039 31.44 39.3799 29.968C39.9879 28.464 40.8359 27.152 41.9239 26.032C43.0439 24.88 44.3559 23.904 45.8599 23.104C47.3959 22.304 49.0599 21.696 50.8519 21.28C52.6759 20.864 54.6119 20.656 56.6599 20.656C59.7639 20.656 62.4679 21.152 64.7719 22.144C67.1079 23.104 68.9159 24.464 70.1959 26.224C71.4759 27.984 72.1159 30.064 72.1159 32.464C72.1159 34.256 71.8119 35.904 71.2039 37.408C70.6279 38.88 69.7959 40.192 68.7079 41.344C67.6199 42.496 66.3239 43.472 64.8199 44.272C63.3159 45.04 61.6519 45.632 59.8279 46.048C58.0039 46.464 56.0519 46.672 53.9719 46.672ZM54.5959 40.48C55.6199 40.48 56.5639 40.368 57.4279 40.144C58.3239 39.92 59.1239 39.584 59.8279 39.136C60.5319 38.688 61.1239 38.16 61.6039 37.552C62.0839 36.912 62.4519 36.208 62.7079 35.44C62.9959 34.672 63.1399 33.84 63.1399 32.944C63.1399 31.696 62.8519 30.624 62.2759 29.728C61.6999 28.8 60.8839 28.096 59.8279 27.616C58.8039 27.104 57.5559 26.848 56.0839 26.848C55.0599 26.848 54.0999 26.96 53.2039 27.184C52.3399 27.408 51.5559 27.744 50.8519 28.192C50.1799 28.608 49.5879 29.136 49.0759 29.776C48.5639 30.384 48.1639 31.072 47.8759 31.84C47.6199 32.608 47.4919 33.44 47.4919 34.336C47.4919 35.584 47.7799 36.672 48.3559 37.6C48.9319 38.528 49.7479 39.248 50.8039 39.76C51.8919 40.24 53.1559 40.48 54.5959 40.48ZM85.0995 46C82.4755 46 80.4915 45.248 79.1475 43.744C77.8035 42.208 77.3555 40.16 77.8035 37.6L81.8835 14.656H90.6675L86.7315 36.832C86.5395 38.016 86.6835 38.88 87.1635 39.424C87.6435 39.968 88.5555 40.24 89.8995 40.24H94.6995L93.6915 46H85.0995ZM73.9635 26.992L74.9715 21.328H81.4515L80.4915 26.992H73.9635ZM87.7395 26.992L88.6995 21.328H98.0595L97.0515 26.992H87.7395Z" fill="black"/>
<path d="M110.373 46L115.269 18.64H100.869L102.069 11.728H140.037L138.789 18.64H124.389L119.541 46H110.373ZM138.066 46L144.114 11.728H169.074C171.122 11.728 172.914 12.096 174.45 12.832C175.986 13.536 177.17 14.544 178.002 15.856C178.866 17.136 179.298 18.688 179.298 20.512C179.298 22.08 178.882 23.6 178.05 25.072C177.25 26.512 176.066 27.712 174.498 28.672C172.93 29.632 170.994 30.192 168.69 30.352L168.402 29.68C170.386 29.872 171.906 30.24 172.962 30.784C174.018 31.296 174.786 32.032 175.266 32.992C175.778 33.92 176.13 35.104 176.322 36.544L177.57 46H168.354L167.394 37.744C167.234 36.208 166.802 35.152 166.098 34.576C165.426 33.968 164.274 33.664 162.642 33.664H149.394L147.234 46H138.066ZM150.642 26.704H164.754C165.65 26.704 166.482 26.544 167.25 26.224C168.018 25.872 168.642 25.344 169.122 24.64C169.602 23.936 169.842 23.072 169.842 22.048C169.842 20.864 169.506 20.016 168.834 19.504C168.194 18.96 167.33 18.688 166.242 18.688H152.034L150.642 26.704ZM179.207 46L202.055 11.728H212.855L223.559 46H214.199L205.511 16.432H208.103L189.191 46H179.207ZM190.343 38.848L191.591 32.128H215.351L214.151 38.848H190.343ZM245.496 46.672C241.336 46.672 237.72 46 234.648 44.656C231.608 43.312 229.256 41.424 227.592 38.992C225.928 36.56 225.096 33.728 225.096 30.496C225.096 28.416 225.368 26.496 225.912 24.736C226.456 22.976 227.256 21.376 228.312 19.936C229.368 18.496 230.616 17.216 232.056 16.096C233.496 14.976 235.112 14.048 236.904 13.312C238.696 12.576 240.632 12.016 242.712 11.632C244.792 11.248 246.952 11.056 249.192 11.056C253.384 11.056 256.888 11.648 259.704 12.832C262.552 14.016 264.744 15.584 266.28 17.536C267.848 19.488 268.76 21.6 269.016 23.872H259.272C259.016 22.848 258.44 21.904 257.544 21.04C256.648 20.144 255.416 19.424 253.848 18.88C252.312 18.304 250.456 18.016 248.28 18.016C246.936 18.016 245.656 18.16 244.44 18.448C243.256 18.704 242.152 19.088 241.128 19.6C240.104 20.08 239.192 20.672 238.392 21.376C237.592 22.08 236.904 22.88 236.328 23.776C235.784 24.672 235.352 25.648 235.032 26.704C234.744 27.728 234.6 28.832 234.6 30.016C234.6 32.064 235.08 33.824 236.04 35.296C237.032 36.736 238.392 37.84 240.12 38.608C241.848 39.344 243.848 39.712 246.12 39.712C247.976 39.712 249.656 39.472 251.16 38.992C252.696 38.48 254.024 37.792 255.144 36.928C256.296 36.064 257.16 35.04 257.736 33.856H267.528C266.664 36.576 265.208 38.896 263.16 40.816C261.112 42.704 258.584 44.16 255.576 45.184C252.6 46.176 249.24 46.672 245.496 46.672ZM269.597 46L275.645 11.728H284.813L281.213 31.936L278.813 30.496L302.333 11.728H313.853L295.373 26.032C296.237 26.32 297.005 26.704 297.677 27.184C298.349 27.632 298.957 28.192 299.501 28.864C300.077 29.536 300.621 30.352 301.133 31.312L309.341 46H298.733L292.589 33.76C291.949 32.512 291.085 31.888 289.997 31.888C288.941 31.856 287.837 32.272 286.685 33.136L276.989 40.384L280.877 34.048L278.765 46H269.597ZM312.675 46L318.771 11.728H352.563L351.267 18.688H326.643L325.491 25.408H348.195L347.091 32.08H324.291L323.091 39.04H347.715L346.467 46H312.675ZM351.629 46L357.677 11.728H380.621C382.861 11.728 384.941 12.08 386.861 12.784C388.781 13.456 390.445 14.432 391.853 15.712C393.293 16.992 394.397 18.576 395.165 20.464C395.965 22.32 396.365 24.432 396.365 26.8C396.365 28.976 396.029 31.024 395.357 32.944C394.717 34.864 393.789 36.624 392.573 38.224C391.357 39.824 389.885 41.2 388.157 42.352C386.429 43.504 384.461 44.4 382.253 45.04C380.045 45.68 377.645 46 375.052 46H351.629ZM361.997 39.04H374.621C375.933 39.04 377.197 38.864 378.413 38.512C379.629 38.16 380.749 37.648 381.773 36.976C382.829 36.272 383.741 35.44 384.509 34.48C385.277 33.52 385.869 32.432 386.285 31.216C386.701 30 386.909 28.704 386.909 27.328C386.909 25.824 386.685 24.544 386.237 23.488C385.789 22.4 385.181 21.504 384.413 20.8C383.645 20.096 382.765 19.568 381.773 19.216C380.781 18.864 379.757 18.688 378.701 18.688H365.597L361.997 39.04Z" fill="#FF6B6B"/>
</svg>
